<?xml version="1.0" standalone="no"?>
<!DOCTYPE svg PUBLIC "-//W3C//DTD SVG 20010904//EN"
 "http://www.w3.org/TR/2001/REC-SVG-20010904/DTD/svg10.dtd">
<svg version="1.0" xmlns="http://www.w3.org/2000/svg"
 width="2400.000000pt" height="2400.000000pt" viewBox="0 0 2400.000000 2400.000000"
 preserveAspectRatio="xMidYMid meet">
<metadata>
Created by potrace 1.11, written by Peter Selinger 2001-2013
</metadata>
<g transform="translate(0.000000,2400.000000) scale(0.100000,-0.100000)"
fill="#000000" stroke="none">
<path d="M11578 23425 c-1 -1 -46 -6 -98 -9 -52 -4 -108 -9 -125 -10 -98 -10
-195 -19 -225 -21 -50 -4 -169 -15 -210 -20 -19 -3 -66 -7 -105 -10 -38 -3
-90 -7 -115 -10 -25 -2 -70 -7 -100 -10 -30 -3 -62 -7 -70 -10 -8 -2 -37 -7
-65 -10 -97 -11 -140 -16 -155 -20 -8 -2 -31 -7 -50 -10 -36 -6 -285 -51 -330
-60 -14 -3 -61 -12 -105 -21 -44 -8 -107 -22 -140 -31 -62 -16 -73 -18 -140
-32 -186 -39 -722 -193 -1020 -293 -994 -334 -2004 -852 -2860 -1467 -221
-159 -639 -486 -750 -588 -11 -10 -76 -67 -145 -128 -198 -175 -231 -206 -485
-460 -258 -257 -300 -302 -470 -495 -60 -69 -112 -127 -115 -130 -26 -23 -306
-370 -421 -520 -574 -752 -1079 -1618 -1449 -2485 -40 -93 -79 -184 -86 -202
-25 -57 -105 -265 -171 -448 -59 -161 -98 -279 -180 -540 -24 -76 -138 -488
-148 -530 -6 -28 -9 -42 -45 -195 -36 -158 -60 -265 -65 -300 -3 -14 -7 -36
-10 -50 -3 -14 -8 -38 -10 -55 -3 -16 -14 -75 -25 -130 -11 -55 -22 -116 -25
-135 -3 -19 -8 -46 -10 -60 -3 -14 -7 -41 -9 -60 -5 -37 -14 -99 -22 -140 -2
-14 -7 -50 -10 -80 -3 -30 -7 -57 -9 -60 -2 -3 -6 -37 -10 -75 -3 -39 -8 -77
-10 -85 -2 -8 -7 -51 -11 -95 -3 -44 -8 -87 -9 -96 -7 -34 -15 -117 -20 -184
-10 -158 -16 -242 -21 -285 -24 -253 -24 -1341 1 -1491 2 -13 6 -69 10 -124 9
-146 18 -252 35 -395 5 -52 13 -117 16 -145 6 -67 21 -181 29 -235 2 -14 16
-101 30 -195 45 -292 145 -798 184 -932 5 -18 8 -33 6 -33 -2 0 2 -18 10 -40
8 -22 12 -40 10 -40 -2 0 1 -15 6 -32 6 -18 12 -41 14 -51 2 -10 20 -78 40
-150 20 -73 38 -139 40 -147 9 -40 120 -393 168 -535 76 -223 229 -627 277
-730 5 -11 20 -47 34 -80 23 -58 50 -116 122 -273 19 -41 34 -76 34 -78 0 -7
195 -396 255 -509 75 -141 213 -386 279 -495 28 -47 56 -93 61 -102 98 -166
442 -686 512 -773 5 -5 55 -73 113 -150 147 -198 514 -652 570 -705 3 -3 43
-48 90 -100 141 -158 205 -226 440 -460 217 -216 298 -294 406 -388 27 -24 80
-72 118 -105 38 -34 124 -106 190 -161 67 -54 132 -108 146 -120 14 -11 45
-37 70 -56 25 -19 50 -38 55 -43 160 -124 541 -395 715 -508 212 -138 590
-369 603 -369 3 0 34 -18 69 -39 206 -125 725 -380 1063 -523 105 -44 204 -86
220 -94 78 -35 464 -175 675 -245 362 -119 764 -229 1115 -305 131 -28 138
-29 223 -44 31 -6 68 -12 82 -15 66 -13 231 -41 300 -50 25 -3 52 -8 60 -10 8
-2 38 -6 65 -10 28 -3 84 -10 125 -15 41 -5 95 -11 120 -14 25 -3 65 -8 90
-11 47 -5 90 -10 205 -20 39 -3 86 -8 105 -10 19 -2 71 -7 115 -11 44 -3 88
-8 97 -9 105 -20 1001 -28 1213 -11 61 5 130 10 155 11 149 9 267 18 390 30
25 3 79 7 120 10 41 3 129 12 195 20 66 9 140 18 165 21 25 3 56 7 70 9 14 2
70 11 125 20 55 9 116 19 135 21 19 2 80 13 135 24 55 10 116 22 135 25 19 3
107 22 195 41 88 20 170 38 183 40 12 2 75 18 140 35 64 17 126 32 138 35 11
2 85 22 165 45 79 22 151 42 159 44 58 14 347 107 515 165 66 23 131 45 145
50 61 19 380 145 540 213 612 260 1212 584 1762 952 264 177 550 381 653 467
11 9 83 67 160 128 77 61 154 123 170 138 17 15 55 47 85 72 30 25 60 49 66
55 6 5 46 42 89 80 219 196 327 298 534 506 136 135 317 325 379 397 25 28
144 161 157 176 9 10 199 237 244 291 260 319 632 838 813 1135 23 39 50 82
58 94 8 13 42 69 75 126 33 56 68 116 79 133 79 133 217 391 320 597 117 235
216 444 216 455 0 3 16 40 36 82 20 43 60 139 90 213 30 74 59 144 64 155 42
91 210 579 288 835 111 363 262 958 296 1160 3 19 8 46 11 60 9 40 43 221 49
265 4 22 11 65 16 95 17 100 18 107 25 166 4 33 9 68 11 79 2 11 6 44 10 73 3
29 7 61 9 70 1 9 6 49 9 87 4 39 9 90 11 115 9 88 14 146 20 220 6 78 12 141
20 225 3 28 8 82 10 120 3 39 9 113 13 165 16 208 7 1188 -12 1300 -2 14 -7
67 -11 117 -3 51 -8 103 -10 115 -3 22 -12 136 -20 258 -6 85 -15 182 -20 210
-2 14 -7 52 -10 85 -9 88 -14 127 -20 155 -3 14 -7 43 -10 65 -7 56 -13 94
-20 135 -7 45 -23 138 -29 170 -5 30 -34 185 -41 220 -3 14 -7 36 -10 50 -60
324 -243 996 -395 1451 -225 670 -552 1408 -866 1952 -19 32 -34 60 -34 61 0
2 -29 52 -65 111 -36 59 -65 108 -65 110 0 8 -85 140 -92 143 -5 2 -8 7 -8 12
0 16 -252 398 -383 580 -37 52 -256 348 -274 370 -6 8 -27 33 -45 56 -18 23
-46 58 -63 79 -16 21 -35 43 -40 49 -6 6 -26 31 -45 56 -37 48 -43 55 -142
170 -35 41 -74 86 -86 100 -67 80 -84 99 -231 259 -228 248 -540 560 -695 694
-12 10 -34 31 -51 46 -61 55 -184 160 -300 256 -66 55 -125 104 -131 110 -11
10 -51 41 -249 193 -157 120 -393 288 -590 418 -151 101 -224 147 -415 265
-359 221 -922 508 -1375 701 -150 64 -376 153 -490 194 -38 14 -79 29 -90 34
-22 10 -315 108 -490 163 -197 63 -748 208 -885 233 -14 3 -104 21 -200 40
-96 20 -188 38 -205 40 -68 11 -274 44 -335 53 -98 16 -187 27 -284 37 -33 3
-68 7 -78 9 -11 2 -49 7 -86 10 -37 4 -78 8 -92 10 -14 2 -61 7 -105 10 -44 3
-96 8 -115 10 -53 6 -177 17 -239 21 -67 5 -1078 14 -1083 9z m962 -1509 c53
-5 119 -10 280 -21 70 -5 105 -8 205 -20 22 -3 60 -7 85 -9 84 -9 165 -19 184
-22 11 -2 56 -8 100 -14 143 -19 358 -53 436 -70 25 -5 56 -12 70 -14 14 -2
61 -12 105 -21 44 -9 87 -18 95 -20 180 -37 631 -159 870 -237 244 -79 662
-230 685 -248 6 -4 21 -11 35 -15 137 -41 783 -356 1038 -506 46 -27 86 -49
87 -49 6 0 236 -140 282 -171 23 -16 44 -29 47 -29 18 0 574 -389 696 -487 8
-6 78 -62 155 -124 139 -111 261 -213 280 -234 6 -6 24 -21 40 -34 132 -101
606 -567 816 -801 95 -106 213 -242 259 -299 19 -24 40 -48 46 -55 76 -81 475
-612 513 -684 6 -11 17 -26 24 -34 21 -22 261 -394 317 -492 10 -17 50 -87 90
-156 66 -115 113 -202 217 -400 39 -74 190 -388 233 -485 52 -115 60 -135 60
-140 0 -2 11 -28 24 -57 164 -362 400 -1061 506 -1503 68 -282 86 -366 95
-429 3 -15 7 -36 10 -46 8 -25 12 -45 36 -185 25 -150 28 -164 33 -206 3 -19
7 -47 10 -64 15 -87 23 -143 30 -225 11 -110 17 -176 21 -209 3 -18 7 -70 11
-115 3 -44 8 -89 10 -99 1 -10 6 -53 10 -95 3 -42 8 -86 10 -97 25 -116 24
-1216 0 -1405 -10 -78 -28 -251 -41 -400 -16 -166 -24 -250 -29 -276 -2 -10
-7 -44 -11 -74 -10 -83 -62 -395 -79 -480 -8 -41 -18 -91 -21 -110 -3 -19 -12
-62 -20 -95 -8 -33 -30 -132 -50 -220 -21 -88 -57 -234 -82 -325 -25 -91 -46
-172 -48 -180 -28 -122 -226 -700 -304 -885 -189 -448 -213 -501 -327 -729
-370 -740 -804 -1409 -1299 -2001 -124 -150 -134 -161 -165 -195 -14 -15 -56
-62 -95 -106 -163 -184 -620 -629 -815 -795 -41 -35 -86 -74 -100 -85 -31 -28
-182 -152 -195 -162 -5 -4 -62 -48 -125 -98 -153 -121 -438 -324 -634 -452
-149 -97 -433 -272 -442 -272 -2 0 -34 -19 -71 -42 -146 -89 -556 -296 -868
-438 -89 -41 -408 -170 -420 -170 -7 0 -16 -4 -19 -9 -3 -5 -18 -12 -33 -16
-23 -5 -179 -61 -233 -82 -8 -3 -19 -7 -25 -9 -5 -2 -68 -22 -140 -45 -450
-144 -891 -254 -1285 -319 -102 -17 -194 -33 -205 -34 -62 -11 -96 -16 -145
-21 -30 -3 -66 -7 -80 -9 -14 -2 -52 -7 -85 -11 -32 -4 -67 -8 -75 -10 -9 -2
-52 -6 -96 -10 -43 -3 -95 -8 -114 -10 -19 -2 -80 -6 -135 -10 -55 -3 -111 -8
-125 -10 -175 -26 -1152 -27 -1275 -1 -11 2 -49 7 -85 10 -36 4 -81 9 -101 12
-20 2 -56 7 -80 9 -24 2 -71 7 -104 10 -33 4 -76 8 -95 10 -19 2 -62 6 -95 10
-118 12 -141 14 -240 29 -91 14 -233 37 -310 51 -16 3 -89 19 -161 35 -73 16
-145 32 -160 35 -16 3 -54 12 -84 21 -30 8 -71 19 -90 24 -83 20 -315 84 -430
120 -234 72 -265 82 -420 135 -370 126 -789 304 -1145 485 -233 119 -311 161
-367 196 -21 13 -40 24 -42 24 -3 0 -142 81 -248 145 -254 153 -640 421 -878
609 -36 28 -72 56 -80 63 -99 78 -151 121 -240 197 -92 79 -155 135 -339 301
-149 134 -505 500 -682 700 -403 457 -842 1061 -1119 1540 -132 227 -189 330
-302 548 -217 416 -482 1060 -608 1477 -18 58 -36 114 -40 125 -10 24 -24 70
-44 145 -8 30 -30 111 -49 180 -30 109 -45 166 -53 205 -1 6 -15 69 -32 140
-37 155 -90 421 -107 540 -4 22 -15 92 -25 155 -10 63 -21 142 -24 175 -4 33
-8 69 -10 81 -2 11 -7 47 -10 80 -4 32 -11 97 -16 144 -10 84 -14 119 -25 235
-8 81 -15 154 -20 190 -25 187 -26 1266 -1 1422 5 33 13 96 21 178 4 33 8 71
10 85 2 14 7 50 10 80 3 30 8 69 10 85 2 17 6 59 10 95 3 36 8 76 10 90 3 14
7 56 11 95 3 38 7 76 9 85 1 8 6 44 10 80 4 36 9 74 11 85 7 35 13 67 29 168
8 55 27 151 41 215 14 65 28 131 31 147 2 17 16 77 30 135 13 58 26 112 28
120 42 188 287 993 315 1035 4 6 22 53 40 105 18 52 39 109 46 125 7 17 43
104 79 195 37 91 79 192 94 225 15 33 52 114 82 180 213 474 513 992 879 1519
29 42 274 371 284 382 6 6 25 29 41 50 87 111 225 277 300 360 6 6 37 42 70
80 205 234 569 595 830 824 66 58 122 107 125 110 10 11 247 206 280 230 18
14 47 36 64 50 17 14 38 31 46 37 30 24 235 176 304 225 199 140 742 488 762
488 3 0 21 11 42 23 91 58 666 357 686 357 2 0 46 20 97 44 118 55 483 206
498 206 6 0 19 4 29 9 42 24 358 133 547 190 277 83 522 151 600 167 11 2 58
13 104 24 46 12 105 25 130 30 25 5 57 12 71 15 172 35 308 61 375 71 22 3 51
7 65 10 14 2 45 7 70 10 25 3 56 7 69 9 50 9 149 20 261 30 36 3 81 8 100 10
19 3 60 7 90 9 63 5 191 17 235 22 17 1 68 6 115 10 47 3 87 8 89 10 6 5 873
-4 931 -10z"/>
<path d="M10931 12140 l0 -8090 27 -1 c111 -2 836 1 839 4 2 2 6 3643 8 8091
l5 8086 -439 0 -440 0 0 -8090z"/>
<path d="M9649 17298 c-1 -7 -2 -2318 -3 -5135 l-2 -5123 423 0 c331 0 423 3
424 13 3 39 4 10234 1 10245 -3 9 -97 12 -423 12 -328 0 -419 -3 -420 -12z"/>
<path d="M12265 12170 c1 -2827 3 -5142 6 -5144 4 -4 784 -10 827 -7 9 1 12
1037 12 5146 l0 5145 -423 0 -424 0 2 -5140z"/>
<path d="M7029 15815 c-2 -21 8 -7270 11 -7330 0 -6 48 -9 127 -8 71 1 259 2
418 2 l290 1 0 3672 0 3673 -423 0 c-277 0 -422 -3 -423 -10z"/>
<path d="M13813 15082 l-262 -2 2 -2928 2 -2927 395 -5 c217 -3 414 -4 438 -2
l42 3 0 2930 c0 2336 -3 2929 -12 2930 -40 3 -379 4 -605 1z"/>
<path d="M17516 15082 c-16 -3 -17 -173 -15 -2938 l1 -2934 412 4 c226 2 413
5 416 5 3 1 5 1319 5 2931 0 2597 -2 2930 -15 2931 -50 3 -790 3 -804 1z"/>
<path d="M14879 14340 c0 -27 0 -131 1 -2712 l1 -1668 425 0 424 0 0 2203 0
2202 -425 0 -425 0 -1 -25z"/>
<path d="M8349 14008 c0 -194 -2 -1184 -3 -2200 l-4 -1848 414 0 414 0 1 348
c0 191 2 631 4 977 2 347 6 1179 9 1850 l6 1220 -420 3 -420 3 -1 -353z"/>
<path d="M5715 12148 l0 -2193 414 3 c228 1 416 4 418 6 3 3 7 618 18 3114 6
1202 5 1252 -12 1253 -10 0 -202 3 -428 5 l-410 5 0 -2193z"/>
<path d="M18797 13551 c2 -234 5 -1053 7 -1819 2 -766 6 -1395 8 -1397 10 -10
848 -10 851 0 2 5 3 827 3 1825 l-1 1815 -435 1 -435 2 2 -427z"/>
<path d="M4411 13608 c-5 -13 -7 -2840 -2 -2894 1 -9 113 -11 424 -10 l422 1
0 1458 c0 989 -3 1457 -10 1458 -5 0 -194 1 -419 2 -375 2 -409 1 -415 -15z"/>
<path d="M16203 13616 c-4 -6 -8 -2841 -4 -2902 1 -8 117 -12 425 -12 l423 0
-1 1461 -1 1460 -418 1 c-232 1 -421 -3 -424 -8z"/>
<path d="M3105 12163 l0 -718 422 0 c416 -1 422 0 425 20 2 11 3 333 3 715 l0
695 -425 3 -425 2 0 -717z"/>
<path d="M20105 12166 c0 -628 2 -715 15 -719 8 -2 202 -3 430 -3 l415 1 3
718 2 717 -432 0 -433 0 0 -714z"/>
</g>
</svg>
