<?xml version="1.0" encoding="UTF-8" standalone="no"?>
<!DOCTYPE svg PUBLIC "-//W3C//DTD SVG 1.1//EN" "http://www.w3.org/Graphics/SVG/1.1/DTD/svg11.dtd">
<svg width="100%" height="100%" viewBox="0 0 1600 1600" version="1.1" xmlns="http://www.w3.org/2000/svg" xmlns:xlink="http://www.w3.org/1999/xlink" xml:space="preserve" xmlns:serif="http://www.serif.com/" style="fill-rule:evenodd;clip-rule:evenodd;stroke-linejoin:round;stroke-miterlimit:2;">
    <g transform="matrix(0.943672,0,0,1.5958,43.7042,-503.422)">
        <path id="spectrum" d="M725.999,473L725.999,1149L787.34,1149C787.34,1149 787.999,478.77 787.999,473L725.999,473ZM634.999,594.999L634.999,1024L694.999,1024L694.999,594.999L634.999,594.999ZM819.999,594.999L820.278,1024.82L879.999,1024.96L879.999,594.999L819.999,594.999ZM450,656.999L451,963.999C454.52,963.739 509.95,963.84 509.95,963.84L509.999,656.999L450,656.999ZM972.999,932.999L972.999,687.999L911.062,688.145L911.306,932.867L972.999,932.999ZM1190,687.999L1190.17,933.291L1249.05,933.078L1248.93,687.999L1190,687.999ZM357.481,718.998L357.264,902.186L416.49,901.99L417.875,719.338L357.481,718.998ZM543.51,718.162L542.999,901.999L601.49,901.99L602.89,718.371L543.51,718.162ZM1005,901.999L1065,901.999L1065,717.999L1004.81,718.086L1005,901.999ZM1281.62,734.171L1282.4,886.593L1342.97,886.739L1343,733.999L1281.62,734.171ZM265,748.999L265,870.999L325,870.999L325,748.999L265,748.999ZM1098,748.999L1098,870.999L1158,870.999L1158,748.999L1098,748.999ZM173,779.999L173,839.999L233,839.999L233.043,780.029L173,779.999ZM1374,779.999L1374,839.999L1435,839.999L1435,779.999L1374,779.999Z" style="fill:white;fill-rule:nonzero;"/>
    </g>
    <g>
        <path id="outer-ring" serif:id="outer ring" d="M774.999,38.21L761.999,39.17L706.999,44.29C657.699,50.37 603.779,64.04 556.999,80.69C349.74,154.44 189.88,317.92 110.81,521.999C53.06,671.069 45.23,837.329 83.89,991.999C115.424,1118.09 179.362,1233.95 267.91,1329C293.24,1356.18 320.66,1381.71 350,1404.58C413.47,1454.03 483.21,1492.72 558.999,1519.69C612.069,1538.58 666.939,1551.56 722.999,1557.17L762.999,1561L781.999,1562L823.999,1562L835.999,1561.09L864.999,1559.09C924.189,1555.02 982.739,1542.24 1039,1523.49C1260.2,1449.75 1438.86,1264.51 1509.66,1043C1526.47,990.399 1540.24,930.089 1544.09,874.999L1547,840.999L1548,818.999L1548,776.999L1547,757.999L1544.17,725.999L1542.83,708.999C1538.48,665.519 1528.66,621.889 1516.42,579.999C1482.09,462.43 1423.56,360.6 1340.09,271L1315,245.04C1223.56,157.58 1112.41,94.29 989.999,62.12C952.529,52.27 915.539,45.69 876.999,41.83L854.999,39.91L844.999,39L822.999,38.21L774.999,38.21ZM777.999,138.14L819.999,138.14L835.999,139L860.999,140.83C913.599,145.93 956.789,154.93 1007,171.67C1167.57,225.187 1300.86,345.277 1376.25,496C1409.29,562.089 1432.06,633.649 1441.72,706.999L1445.17,741.999L1447,758.999L1447,767.999L1448,779.999L1448,819.999L1447,831.999L1447,840.999L1444.17,867.999L1442.72,884.999C1437.38,929.389 1426.41,977.679 1412,1020C1382.78,1105.79 1331.65,1191.74 1269.91,1258C1217.11,1314.67 1154.3,1361.68 1085,1396.25C1018.22,1429.55 945.219,1450.75 870.999,1458.17L834.999,1461.09L822.999,1462L782.999,1462L772.999,1460.96L763.999,1460.96L739.999,1458.17L714.999,1455.72C678.299,1451.26 642.109,1441.61 606.999,1430.34C367.29,1353.45 189.808,1127.71 164.83,877.999L161,840.999L161,831.999L160,821.999L160,779.999L161.04,767.999L161.04,757.999L165.84,716.999L168.43,692.999C177.44,630.909 199.01,563.649 225.78,506.999C299.85,350.22 440.66,223.27 605.999,169.74C643.459,157.62 682.869,148.04 721.999,143.28L764.999,139.17L777.999,138.14Z" style="fill:white;fill-rule:nonzero;"/>
    </g>
</svg>
